<?xml version="1.0" standalone="no"?>
<!DOCTYPE svg PUBLIC "-//W3C//DTD SVG 20010904//EN"
 "http://www.w3.org/TR/2001/REC-SVG-20010904/DTD/svg10.dtd">
<svg version="1.0" xmlns="http://www.w3.org/2000/svg"
 width="1044.000000pt" height="1044.000000pt" viewBox="0 0 1044.000000 1044.000000"
 preserveAspectRatio="xMidYMid meet">
<metadata>
Created by potrace 1.14, written by Peter Selinger 2001-2017
</metadata>
<g transform="translate(0.000000,1044.000000) scale(0.100000,-0.100000)"
fill="#000000" stroke="none">
<path d="M4998 10015 c-2 -2 -52 -6 -113 -9 -60 -4 -123 -9 -140 -11 -16 -1
-55 -6 -85 -9 -145 -16 -206 -24 -320 -46 -36 -6 -74 -14 -85 -16 -172 -32
-582 -145 -670 -184 -28 -13 -158 -61 -170 -64 -5 -1 -17 -6 -25 -11 -8 -5
-20 -10 -25 -11 -24 -4 -308 -137 -423 -198 -67 -37 -127 -66 -132 -66 -6 0
-10 -4 -10 -9 0 -5 -10 -13 -22 -17 -13 -4 -25 -9 -28 -13 -6 -7 -33 -24 -75
-47 -50 -28 -263 -172 -364 -247 -129 -95 -183 -140 -317 -258 -119 -106 -238
-223 -349 -344 -49 -54 -97 -105 -105 -114 -24 -25 -193 -236 -210 -261 -8
-13 -25 -35 -38 -50 -12 -15 -22 -33 -22 -39 0 -6 -4 -11 -10 -11 -5 0 -17
-15 -26 -32 -9 -18 -20 -35 -24 -38 -12 -8 -131 -197 -199 -315 -34 -60 -67
-117 -72 -125 -19 -33 -139 -280 -172 -355 -62 -139 -138 -342 -172 -455 -1
-3 -4 -12 -8 -20 -7 -18 -30 -91 -33 -105 -1 -5 -17 -64 -34 -130 -32 -122
-37 -141 -46 -184 -3 -14 -7 -27 -9 -31 -2 -4 -7 -29 -10 -56 -4 -27 -9 -57
-11 -67 -3 -10 -7 -31 -10 -47 -5 -38 -12 -78 -18 -110 -3 -14 -7 -45 -10 -70
-3 -25 -8 -61 -11 -80 -25 -188 -34 -344 -34 -605 0 -223 9 -398 25 -502 3
-17 7 -49 9 -70 6 -63 23 -183 40 -273 8 -47 20 -112 26 -145 6 -33 15 -71 20
-85 5 -14 11 -36 13 -50 26 -141 155 -539 231 -715 7 -16 27 -64 45 -105 37
-85 130 -275 180 -365 68 -124 143 -250 152 -253 4 -2 8 -8 8 -14 0 -5 25 -46
55 -90 30 -44 55 -82 55 -84 0 -3 4 -10 10 -17 5 -7 57 -74 115 -151 59 -76
112 -145 118 -152 7 -7 17 -19 22 -26 90 -119 448 -479 593 -596 22 -19 51
-42 64 -53 61 -50 88 -72 156 -124 40 -30 75 -55 78 -55 3 0 12 -6 20 -14 8
-8 60 -45 117 -82 56 -38 104 -72 105 -76 2 -4 9 -8 15 -8 7 0 36 -16 64 -35
29 -19 55 -35 57 -35 3 0 39 -20 79 -44 69 -40 420 -216 433 -216 3 0 41 -15
84 -34 74 -33 348 -134 380 -141 8 -2 15 -4 15 -5 0 -1 7 -3 15 -5 8 -1 47
-12 85 -25 39 -12 77 -23 85 -25 8 -2 42 -10 75 -19 33 -8 71 -18 85 -21 25
-5 82 -18 130 -29 14 -4 39 -8 55 -11 17 -3 44 -8 60 -12 17 -3 37 -7 45 -8 8
-1 29 -5 45 -9 17 -3 55 -8 85 -11 30 -2 66 -7 79 -9 14 -3 54 -8 90 -11 36
-3 82 -7 101 -10 102 -12 246 -18 425 -18 218 -1 345 6 540 29 28 3 66 8 85
10 19 2 55 6 80 9 42 4 79 10 140 22 28 5 115 22 145 27 11 2 52 12 90 21 39
9 81 19 95 21 14 3 43 10 65 16 22 7 43 12 48 14 4 1 8 2 10 4 1 1 9 3 17 5 8
2 24 6 35 9 11 2 39 11 63 20 23 8 42 13 42 9 0 -3 7 1 17 8 9 8 18 13 20 11
6 -5 93 21 99 29 3 5 12 9 21 9 8 0 29 6 46 14 18 7 55 21 82 31 28 10 64 23
80 31 17 7 59 25 95 39 89 37 389 183 421 206 14 10 29 16 33 12 3 -3 6 -2 6
4 0 5 12 15 28 22 40 18 166 95 170 103 2 5 8 8 14 8 6 0 39 20 75 45 35 25
66 45 69 45 3 0 22 13 42 28 39 30 111 83 158 117 42 31 177 141 294 240 58
49 370 365 435 439 132 152 285 353 386 506 31 47 64 100 74 117 11 18 22 33
26 33 4 0 10 11 13 24 3 14 12 31 19 38 14 16 23 32 70 120 19 35 48 89 66
121 18 31 29 57 24 57 -4 0 -3 4 2 8 13 9 60 104 57 115 -1 4 2 7 8 7 5 0 10
5 10 11 0 6 23 62 50 124 28 62 50 119 50 127 0 8 4 18 9 24 4 5 14 25 21 44
7 19 19 53 27 75 8 22 16 47 18 55 2 8 13 39 24 68 11 29 20 56 22 60 4 16 8
29 24 80 9 29 18 63 19 76 2 13 6 27 9 33 3 5 8 20 11 34 9 44 14 64 26 109 7
25 12 45 12 45 -1 0 3 18 8 40 9 37 49 254 55 300 2 11 6 40 10 65 10 65 16
111 30 248 21 201 21 683 -1 867 -3 28 -8 66 -10 85 -8 83 -15 139 -24 190 -5
30 -12 73 -15 95 -4 22 -8 47 -10 55 -4 14 -13 62 -20 105 -2 11 -8 43 -14 70
-6 28 -14 63 -17 79 -3 16 -10 40 -15 53 -5 13 -9 35 -9 49 0 13 -4 24 -10 24
-5 0 -9 3 -8 8 5 20 -77 297 -94 320 -6 6 -8 12 -4 12 3 0 0 15 -8 34 -8 19
-12 37 -8 40 3 3 0 6 -6 6 -7 0 -11 3 -10 8 10 32 -216 525 -328 717 -25 44
-51 89 -58 100 -31 55 -115 186 -148 232 -21 29 -38 55 -38 58 0 10 -264 346
-324 414 -214 238 -430 444 -641 610 -44 35 -90 72 -103 82 -12 10 -26 19 -32
19 -5 0 -13 6 -17 13 -11 16 -133 100 -275 187 -40 24 -79 50 -86 57 -7 7 -18
13 -23 13 -5 0 -15 5 -22 11 -57 52 -717 365 -717 341 0 -4 -4 -2 -8 3 -4 6
-41 21 -82 35 -41 13 -79 27 -85 31 -5 4 -66 23 -135 44 -218 63 -273 78 -345
91 -16 2 -46 9 -65 14 -19 5 -51 12 -70 15 -19 3 -42 8 -51 11 -10 2 -30 6
-45 9 -27 3 -61 9 -110 19 -11 2 -53 7 -93 11 -40 3 -82 8 -94 11 -12 2 -53 6
-92 10 -38 3 -86 8 -105 10 -40 6 -567 14 -572 9z m422 -389 c102 -3 199 -8
215 -10 17 -3 53 -7 80 -10 28 -3 61 -8 75 -10 14 -2 48 -7 75 -11 28 -3 82
-13 120 -20 39 -8 87 -16 108 -20 38 -5 211 -46 352 -84 172 -45 564 -193 677
-256 14 -8 33 -15 41 -15 9 0 17 -3 19 -8 2 -4 46 -29 98 -56 125 -63 236
-129 395 -234 113 -75 310 -218 355 -259 8 -8 25 -22 37 -31 100 -82 374 -347
479 -462 90 -100 271 -333 353 -455 132 -195 195 -302 296 -500 87 -172 113
-228 158 -340 11 -27 26 -64 33 -82 8 -17 14 -33 14 -36 0 -3 5 -18 12 -34 6
-15 12 -30 13 -33 0 -3 18 -58 38 -122 21 -65 37 -119 37 -120 0 -2 8 -28 18
-58 11 -30 19 -58 20 -63 0 -4 3 -20 6 -35 4 -15 8 -36 10 -47 3 -11 11 -49
20 -85 20 -86 26 -118 31 -157 2 -18 6 -36 8 -40 3 -4 8 -37 12 -73 7 -64 10
-86 19 -145 44 -293 40 -878 -8 -1145 -2 -14 -7 -52 -11 -85 -3 -33 -8 -69
-11 -80 -5 -27 -14 -73 -20 -110 -3 -16 -9 -43 -14 -60 -5 -16 -11 -41 -14
-55 -26 -143 -156 -562 -215 -695 -5 -11 -21 -47 -36 -80 -15 -33 -28 -64 -29
-70 -2 -12 -119 -244 -165 -330 -53 -96 -99 -172 -180 -293 -42 -62 -83 -125
-91 -140 -8 -15 -18 -28 -22 -30 -4 -2 -27 -31 -52 -65 -24 -34 -54 -73 -66
-87 -12 -14 -34 -41 -49 -60 -14 -19 -37 -47 -51 -61 -14 -15 -45 -50 -70 -79
-105 -121 -299 -308 -484 -467 -55 -48 -266 -206 -303 -228 -18 -11 -33 -23
-33 -27 0 -4 -6 -8 -14 -8 -8 0 -16 -4 -18 -8 -1 -4 -32 -26 -68 -47 -36 -21
-79 -49 -96 -62 -17 -13 -34 -23 -39 -23 -4 0 -41 -20 -81 -45 -41 -24 -74
-41 -74 -37 0 4 -4 2 -8 -4 -5 -9 -221 -117 -327 -164 -133 -60 -441 -171
-449 -162 -3 3 -6 1 -6 -5 0 -5 -6 -10 -12 -10 -7 0 -56 -12 -108 -27 -52 -16
-106 -30 -119 -33 -14 -2 -28 -6 -31 -8 -4 -2 -20 -7 -36 -9 -16 -3 -40 -8
-54 -11 -14 -3 -36 -8 -50 -10 -14 -2 -45 -8 -69 -14 -25 -5 -49 -8 -53 -5 -4
3 -8 1 -8 -3 0 -5 -10 -9 -22 -10 -21 -2 -106 -14 -118 -18 -3 -1 -36 -5 -75
-9 -38 -5 -79 -10 -90 -12 -122 -25 -793 -24 -970 1 -16 2 -48 6 -70 9 -106
13 -217 31 -285 46 -25 5 -61 12 -80 15 -47 8 -150 33 -234 57 -38 11 -77 21
-87 23 -20 4 -158 48 -264 85 -146 50 -389 156 -535 233 -41 22 -97 51 -125
66 -27 14 -51 29 -53 34 -2 4 -8 7 -13 7 -6 0 -35 16 -65 35 -30 19 -56 35
-58 35 -4 0 -103 64 -121 78 -5 4 -32 23 -60 42 -54 36 -225 162 -264 195
-204 168 -442 400 -586 568 -5 7 -26 30 -45 53 -19 22 -46 55 -60 73 -14 19
-30 39 -35 45 -6 6 -28 36 -50 66 -22 30 -43 60 -47 65 -67 89 -198 288 -198
301 0 4 -16 26 -35 50 -19 23 -35 46 -35 51 0 5 -32 72 -72 149 -68 132 -151
311 -185 399 -8 22 -19 49 -23 60 -16 39 -42 110 -50 135 -54 169 -72 227 -76
240 -8 29 -64 255 -69 275 -2 11 -7 31 -10 45 -3 14 -7 39 -10 55 -3 17 -10
54 -16 83 -6 30 -13 73 -15 95 -5 45 -9 78 -18 142 -40 294 -40 794 0 1065 12
78 14 97 19 145 3 28 7 61 10 75 3 14 7 36 10 50 3 14 7 36 10 50 3 14 8 36
11 50 3 14 7 36 10 50 45 220 124 473 239 765 32 82 124 271 223 460 53 101
287 459 325 497 7 7 18 20 23 29 11 20 54 73 169 208 72 85 341 360 417 425
36 31 218 183 254 211 31 25 132 96 208 147 10 7 24 18 30 24 6 6 44 30 85 55
40 24 85 52 100 61 14 9 42 25 61 36 144 80 243 132 293 155 31 15 83 39 115
54 31 15 59 28 62 29 3 0 18 6 33 12 16 7 30 12 31 12 2 0 25 10 52 22 27 12
54 23 59 24 6 2 78 26 160 54 83 29 160 54 172 56 12 2 34 9 48 14 14 5 25 7
25 4 0 -3 6 -2 13 3 6 4 23 9 36 11 14 2 32 7 40 11 25 13 391 84 491 95 25 3
61 8 80 11 77 12 133 15 320 21 107 4 197 8 198 10 2 1 9 1 15 -1 7 -2 95 -6
197 -9z"/>
<path d="M5056 9243 c-1 -2 -47 -5 -102 -8 -124 -8 -183 -14 -284 -30 -19 -3
-56 -7 -82 -10 -26 -2 -71 -8 -100 -14 -29 -6 -62 -13 -73 -15 -11 -3 -54 -12
-95 -21 -41 -9 -79 -18 -85 -19 -5 -1 -16 -5 -22 -9 -7 -5 -13 -6 -13 -3 0 17
-383 -109 -580 -191 -81 -34 -405 -196 -408 -204 -2 -5 -8 -9 -13 -9 -20 0
-350 -213 -399 -257 -14 -13 -28 -23 -31 -23 -3 0 -15 -8 -27 -17 -11 -10 -29
-25 -39 -33 -10 -8 -41 -33 -68 -55 -116 -93 -162 -135 -299 -270 -131 -130
-322 -346 -340 -386 -5 -10 -12 -19 -16 -19 -4 0 -20 -19 -36 -42 -16 -24 -47
-68 -70 -98 -40 -55 -184 -276 -184 -284 0 -2 -24 -46 -53 -97 -60 -108 -110
-209 -162 -330 -20 -46 -40 -93 -46 -104 -5 -11 -23 -58 -40 -105 -28 -78 -45
-128 -84 -250 -21 -66 -76 -280 -80 -315 -2 -16 -11 -64 -19 -105 -9 -41 -18
-93 -21 -115 -4 -22 -8 -51 -10 -65 -5 -27 -15 -106 -20 -155 -22 -194 -22
-755 1 -867 2 -13 6 -39 9 -58 4 -36 14 -100 20 -129 1 -9 6 -35 10 -58 4 -24
10 -43 13 -43 4 0 23 28 42 62 139 243 369 429 645 520 33 11 65 21 70 23 29
6 82 16 97 19 10 1 21 5 25 10 4 4 8 64 9 134 3 177 14 330 30 417 2 10 6 37
10 60 3 22 15 83 25 135 27 127 25 119 40 170 7 25 13 50 15 56 1 7 12 39 23
72 12 34 24 69 26 79 1 10 17 54 35 98 44 110 52 130 49 130 -7 0 161 312 216
400 85 136 207 301 291 395 39 44 237 243 289 291 109 100 452 349 481 349 4
0 15 6 23 14 37 31 351 184 436 211 22 7 78 27 125 45 47 17 93 33 104 35 10
2 62 15 115 29 53 14 110 28 126 31 17 3 39 8 50 10 52 12 74 16 121 20 28 3
60 7 71 10 144 27 635 34 753 10 14 -2 48 -7 75 -10 51 -7 147 -21 200 -30 17
-3 82 -20 145 -36 63 -17 124 -32 135 -34 11 -2 70 -22 130 -44 61 -22 113
-41 117 -41 3 0 45 -18 92 -40 48 -21 89 -39 91 -39 12 -1 208 -108 300 -164
113 -69 298 -202 395 -285 236 -203 521 -537 646 -757 6 -11 23 -40 38 -65 47
-80 123 -233 165 -335 23 -55 46 -109 50 -120 24 -56 98 -292 106 -335 3 -19
15 -75 26 -123 10 -48 22 -105 25 -125 6 -44 10 -66 18 -112 4 -19 8 -72 10
-117 2 -45 6 -85 8 -90 5 -8 1 -367 -4 -467 l-3 -50 60 -34 c228 -130 425
-300 563 -485 67 -90 89 -126 144 -234 18 -35 35 -63 38 -63 7 0 70 232 75
277 2 18 6 40 9 50 7 23 17 72 20 98 1 11 5 34 9 50 3 17 9 50 12 75 3 25 7
56 10 70 32 154 38 784 9 975 -6 45 -34 226 -39 255 -2 14 -9 50 -15 80 -6 30
-13 66 -16 80 -2 14 -9 45 -15 70 -5 25 -10 50 -10 55 0 6 -5 16 -11 23 -6 6
-8 12 -5 12 3 0 -3 25 -13 55 -10 30 -17 55 -14 55 3 0 0 9 -6 21 -7 11 -14
33 -16 47 -8 44 -69 213 -129 357 -58 138 -216 456 -235 475 -3 3 -26 39 -50
80 -78 131 -238 360 -252 360 -4 0 -8 6 -8 13 0 7 -10 23 -23 37 -12 14 -60
70 -107 125 -97 113 -280 299 -389 395 -41 36 -84 74 -97 85 -12 11 -35 29
-50 40 -15 11 -41 32 -58 47 -17 15 -34 28 -37 28 -3 0 -19 11 -35 25 -41 36
-262 182 -374 247 -173 101 -378 200 -565 273 -110 43 -344 121 -389 131 -10
2 -57 13 -105 24 -143 35 -204 49 -245 55 -21 3 -41 7 -45 9 -3 2 -31 7 -61
10 -30 4 -68 8 -85 10 -16 3 -52 7 -80 11 -27 3 -63 8 -80 10 -80 11 -541 26
-549 18z"/>
<path d="M4940 7883 c-52 -6 -115 -14 -140 -17 -25 -3 -56 -8 -70 -12 -14 -3
-45 -9 -71 -14 -25 -4 -63 -13 -85 -19 -21 -5 -50 -12 -64 -15 -14 -2 -72 -20
-130 -40 -58 -20 -113 -38 -122 -40 -93 -23 -475 -220 -550 -284 -10 -8 -18
-12 -18 -8 0 4 -10 -3 -22 -14 -13 -12 -39 -31 -58 -43 -19 -11 -42 -29 -51
-39 -9 -10 -21 -18 -27 -18 -6 0 -12 -3 -14 -7 -1 -5 -32 -32 -68 -62 -94 -78
-285 -273 -359 -366 -34 -44 -70 -89 -80 -100 -9 -11 -27 -38 -41 -60 -13 -22
-26 -42 -29 -45 -12 -10 -49 -66 -66 -100 -10 -19 -30 -53 -44 -75 -14 -22
-26 -42 -26 -45 -1 -3 -17 -36 -37 -75 -20 -38 -48 -99 -62 -135 -15 -36 -31
-74 -35 -85 -19 -43 -53 -134 -55 -146 -1 -8 -11 -41 -21 -74 -21 -69 -21 -69
-29 -112 -3 -18 -10 -43 -15 -56 -6 -14 -12 -42 -16 -64 -3 -21 -8 -50 -10
-63 -3 -14 -8 -43 -10 -65 -9 -79 -17 -138 -21 -159 -11 -49 -11 -336 0 -344
10 -8 45 -15 141 -28 17 -2 41 -6 55 -10 14 -3 36 -8 50 -11 14 -2 45 -11 70
-19 25 -9 52 -17 60 -19 8 -2 38 -12 65 -23 28 -11 52 -20 55 -20 26 -3 79
-27 308 -140 l203 -100 -6 30 c-4 17 -8 36 -9 42 -1 6 -5 20 -8 31 -4 11 -9
45 -13 75 -3 30 -9 82 -14 115 -9 65 -7 283 3 355 14 93 25 166 30 185 2 11 7
34 11 50 7 30 41 137 52 165 3 8 7 22 9 30 2 9 13 38 25 65 12 28 21 52 20 54
-2 2 1 7 6 10 4 3 21 33 37 66 29 59 133 222 178 279 29 36 233 243 271 274
15 12 32 22 37 22 6 0 10 4 10 9 0 8 89 70 179 124 102 61 307 151 371 162 18
3 37 8 42 11 24 15 186 47 308 61 74 9 283 8 345 -1 28 -4 71 -9 96 -12 50 -6
84 -11 84 -14 0 -2 17 -6 60 -15 45 -10 46 -11 95 -24 74 -22 139 -48 260
-105 272 -129 485 -309 670 -565 70 -97 80 -113 143 -241 55 -109 97 -215 97
-244 0 -9 4 -16 9 -16 4 0 11 -15 14 -32 4 -18 13 -64 21 -102 9 -38 18 -88
21 -110 3 -23 7 -52 11 -66 3 -14 7 -83 9 -154 3 -71 6 -130 8 -133 2 -2 116
-5 253 -7 225 -3 298 -8 359 -21 11 -2 43 -7 70 -10 28 -4 96 -18 153 -31 56
-14 106 -23 111 -20 9 6 6 389 -3 446 -4 19 -8 51 -11 70 -2 19 -7 55 -11 80
-3 25 -7 54 -8 65 -2 11 -6 34 -10 50 -4 17 -16 68 -28 115 -22 94 -106 352
-116 360 -4 3 -13 23 -21 45 -13 41 -99 215 -133 270 -10 17 -23 41 -30 55
-13 27 -128 202 -138 210 -4 3 -26 31 -49 64 -24 32 -51 66 -60 76 -9 9 -45
49 -80 89 -67 75 -167 174 -236 232 -21 19 -47 41 -56 49 -9 8 -31 26 -49 40
-19 14 -39 31 -46 38 -7 6 -16 12 -21 12 -4 1 -37 23 -73 50 -36 28 -71 50
-77 50 -7 0 -13 5 -13 10 0 6 -5 10 -11 10 -6 0 -23 8 -37 18 -15 11 -52 32
-82 47 -30 16 -62 34 -70 40 -55 41 -494 207 -580 219 -19 3 -66 12 -105 21
-107 25 -139 30 -230 40 -27 3 -61 8 -75 11 -50 11 -436 10 -530 -3z"/>
<path d="M5187 6544 c-1 -1 -43 -5 -93 -8 -51 -4 -100 -9 -110 -11 -119 -25
-164 -36 -194 -48 -19 -9 -38 -16 -42 -17 -54 -10 -266 -117 -309 -156 -10 -9
-19 -14 -19 -11 0 4 -8 -1 -18 -10 -10 -10 -36 -31 -58 -48 -50 -39 -169 -159
-214 -216 -19 -24 -38 -45 -42 -47 -4 -2 -8 -12 -8 -23 0 -10 -4 -19 -9 -19
-10 0 -42 -52 -93 -155 -51 -102 -86 -197 -104 -284 -3 -14 -7 -29 -10 -33 -3
-5 -8 -28 -10 -51 -3 -23 -9 -67 -13 -97 -13 -83 -3 -355 15 -400 3 -8 8 -26
10 -40 8 -42 56 -194 67 -207 5 -7 7 -13 3 -13 -8 0 87 -182 116 -222 10 -16
17 -28 14 -28 -6 0 23 -36 52 -66 7 -8 11 -14 7 -14 -3 0 10 -16 30 -35 19
-20 35 -39 35 -43 0 -4 20 -21 43 -39 23 -18 54 -43 69 -55 32 -27 58 -47 88
-68 12 -8 36 -27 52 -42 38 -35 47 -35 89 2 19 16 37 30 40 30 3 0 19 11 35
25 16 14 57 44 92 67 34 23 62 46 62 50 0 5 5 6 10 3 6 -3 10 -3 10 2 0 4 28
26 63 48 34 22 64 42 67 45 3 3 23 17 45 30 22 13 43 28 46 33 3 5 10 8 14 7
4 -1 18 8 32 20 14 12 31 23 37 24 6 1 30 14 53 29 24 15 47 27 52 27 6 0 15
8 20 18 6 9 11 13 11 9 0 -5 7 -1 16 7 8 9 19 14 23 11 5 -2 17 4 28 15 12 10
24 16 27 13 3 -4 6 0 6 7 0 7 3 10 7 7 3 -4 11 -3 17 2 31 26 384 197 466 226
3 1 21 9 40 17 95 41 198 76 204 70 4 -3 6 0 6 7 0 7 5 9 10 6 6 -3 10 -1 10
6 0 7 3 10 6 6 3 -3 31 4 62 15 32 10 65 21 75 23 9 2 21 6 25 9 5 3 24 8 43
11 45 9 63 13 67 15 1 2 7 4 12 5 6 1 11 4 13 5 1 1 11 4 22 5 11 1 40 8 65
15 59 16 82 21 97 22 6 1 14 11 17 22 7 25 0 272 -8 301 -3 11 -7 36 -10 55
-6 47 -35 160 -43 174 -4 6 -9 22 -11 35 -2 14 -8 34 -15 45 -6 12 -12 23 -12
26 -3 16 -46 100 -55 105 -5 3 -7 12 -3 20 3 8 1 15 -5 15 -5 0 -15 14 -22 30
-7 17 -16 30 -21 30 -5 0 -9 7 -9 15 0 8 -4 15 -10 15 -5 0 -10 6 -10 13 0 7
-9 23 -20 35 -11 12 -20 24 -20 27 0 10 -55 69 -145 157 -111 108 -123 118
-135 118 -5 0 -10 5 -10 10 0 6 -6 10 -14 10 -8 0 -17 7 -20 16 -3 8 -10 13
-15 10 -5 -4 -11 -3 -13 2 -8 20 -254 143 -318 158 -3 1 -20 5 -37 9 -18 4
-33 10 -33 14 0 3 -15 7 -33 9 -33 2 -72 9 -72 12 0 6 -272 30 -278 24z"/>
<path d="M7087 4704 c-1 -1 -48 -4 -105 -8 -56 -4 -108 -9 -115 -11 -6 -2 -36
-7 -65 -9 -29 -3 -71 -10 -95 -15 -123 -29 -234 -53 -253 -57 -61 -11 -406
-128 -453 -154 -12 -6 -30 -13 -39 -15 -9 -1 -89 -38 -177 -80 -88 -42 -173
-84 -190 -91 -16 -8 -43 -23 -60 -33 -16 -10 -52 -30 -80 -45 -81 -45 -249
-148 -267 -163 -9 -8 -30 -22 -47 -31 -26 -15 -167 -111 -196 -134 -5 -4 -39
-29 -74 -55 l-64 -47 25 -20 c32 -28 98 -78 200 -152 24 -17 78 -57 121 -88
42 -32 114 -82 160 -113 45 -31 84 -59 87 -62 3 -3 17 -12 32 -20 15 -8 36
-21 46 -30 10 -9 32 -24 50 -34 l32 -18 66 45 c36 25 67 46 70 46 3 0 24 13
47 29 23 15 62 39 87 53 25 14 72 41 105 60 222 126 634 298 776 323 14 3 44
11 67 19 23 9 45 15 47 15 6 -1 70 9 120 18 17 3 39 6 50 7 236 26 319 27 480
2 112 -17 142 -25 240 -66 139 -56 273 -158 351 -266 28 -39 97 -164 90 -164
-2 0 4 -19 14 -43 11 -24 22 -61 24 -83 3 -21 8 -50 11 -64 8 -35 7 -184 -1
-205 -4 -10 -8 -27 -9 -39 -2 -33 -58 -196 -67 -196 -4 0 -8 -5 -8 -12 0 -6
-14 -33 -31 -60 -17 -27 -29 -52 -25 -55 17 -18 233 89 356 175 103 73 270
253 270 291 0 6 4 11 9 11 14 0 98 197 115 271 24 108 25 245 1 354 -9 44 -21
88 -26 97 -5 10 -7 18 -3 18 3 0 2 6 -3 13 -5 6 -18 35 -28 62 -10 28 -21 52
-24 55 -3 3 -17 27 -31 53 -57 109 -239 313 -332 372 -8 6 -42 28 -74 51 -33
23 -79 51 -104 64 -25 12 -53 29 -62 38 -10 8 -18 12 -18 8 0 -4 -17 1 -37 12
-92 47 -246 100 -361 123 -24 5 -47 11 -51 13 -4 3 -34 8 -67 11 -32 4 -61 8
-64 10 -16 10 -432 28 -443 19z"/>
<path d="M2277 4694 c-1 -1 -27 -4 -57 -7 -84 -9 -109 -14 -180 -37 -185 -62
-320 -157 -420 -300 -14 -19 -29 -38 -33 -41 -5 -3 -8 -9 -8 -12 0 -4 -13 -35
-28 -69 -58 -126 -74 -207 -75 -378 0 -145 8 -209 48 -360 20 -74 116 -294
169 -385 54 -92 192 -300 214 -323 7 -7 13 -18 13 -24 0 -7 5 -6 15 2 8 6 14
15 13 18 -3 15 17 71 52 147 107 231 307 384 575 440 101 21 298 14 400 -15
44 -12 85 -25 90 -28 6 -4 19 -8 30 -9 28 -5 213 -96 314 -155 81 -48 242
-153 439 -289 51 -35 104 -71 117 -79 13 -8 74 -49 137 -91 99 -66 270 -176
433 -277 28 -18 73 -43 100 -58 28 -14 57 -32 65 -39 8 -7 44 -28 80 -47 36
-20 88 -48 115 -63 79 -44 403 -205 413 -205 4 0 28 -10 53 -22 24 -12 46 -23
49 -23 3 -1 19 -7 35 -14 32 -14 89 -34 225 -80 78 -26 311 -88 370 -97 14 -2
36 -7 50 -10 36 -9 57 -12 129 -19 36 -3 67 -8 70 -10 28 -17 460 -24 581 -10
36 4 76 9 90 10 24 3 74 10 135 20 17 3 33 5 37 6 4 0 22 5 40 10 32 10 47 14
86 23 9 3 44 14 77 26 33 11 60 20 60 20 0 -1 13 3 28 9 16 6 30 11 32 11 6 0
138 60 155 71 8 5 22 12 30 16 33 14 165 96 168 104 2 5 8 9 13 9 6 0 31 16
56 35 35 26 42 36 30 41 -9 3 -20 3 -25 0 -20 -12 -173 -21 -352 -20 -152 0
-325 8 -325 14 0 1 -9 3 -20 4 -56 8 -112 17 -132 21 -13 3 -33 7 -45 10 -13
2 -34 7 -48 10 -14 3 -38 7 -55 9 -50 7 -215 53 -370 103 -58 19 -247 92 -320
123 -77 34 -339 162 -345 169 -3 3 -23 15 -45 26 -22 11 -67 36 -101 56 -33
20 -70 40 -82 43 -12 4 -22 12 -22 17 0 5 -5 9 -11 9 -6 0 -30 14 -54 30 -24
17 -46 30 -50 30 -8 0 -69 43 -73 53 -2 4 -8 7 -13 7 -5 0 -61 35 -125 78 -63
42 -123 82 -132 87 -9 6 -19 12 -22 15 -3 3 -18 14 -35 26 -125 85 -171 118
-175 123 -3 3 -27 22 -55 40 -27 19 -52 38 -55 41 -3 4 -28 22 -56 41 -28 19
-66 46 -85 62 -19 15 -81 63 -139 106 -235 177 -266 201 -280 214 -8 7 -53 42
-99 78 -45 35 -129 100 -185 144 -55 44 -119 93 -141 110 -22 16 -42 32 -45
35 -3 3 -34 26 -70 51 -36 24 -74 52 -84 62 -11 9 -25 17 -32 17 -7 0 -14 4
-16 9 -4 12 -182 126 -308 198 -164 94 -409 208 -490 228 -3 1 -18 5 -35 9
-16 4 -39 11 -50 16 -35 15 -149 39 -216 46 -57 6 -208 11 -212 8z"/>
<path d="M7113 3459 c-40 -4 -94 -12 -120 -18 -27 -6 -61 -12 -78 -15 -16 -2
-51 -11 -77 -19 -27 -8 -48 -14 -48 -12 0 16 -480 -172 -525 -205 -5 -4 -46
-26 -90 -49 -113 -58 -238 -134 -242 -146 -2 -6 11 -18 29 -26 18 -9 103 -53
189 -98 86 -44 163 -81 172 -81 8 0 17 -3 19 -7 3 -8 111 -55 183 -80 22 -7
47 -17 55 -20 8 -3 17 -7 20 -8 19 -4 87 -29 95 -34 6 -3 15 -6 20 -7 6 -1 64
-16 130 -33 262 -66 481 -57 674 30 39 17 71 36 71 40 0 5 4 9 10 9 20 0 103
80 145 140 14 21 37 65 50 97 21 50 24 71 21 153 -2 82 -7 102 -32 150 -47 88
-147 176 -224 195 -3 1 -12 4 -20 8 -85 35 -270 50 -427 36z"/>
<path d="M2632 2980 c-13 -5 -33 -12 -45 -14 -53 -10 -88 -31 -156 -96 -58
-55 -75 -82 -99 -155 -18 -52 -23 -176 -10 -225 26 -93 67 -189 100 -235 99
-136 199 -239 319 -332 71 -54 252 -182 284 -199 11 -6 68 -41 128 -77 59 -36
107 -64 107 -61 0 2 21 -9 48 -24 45 -27 69 -39 232 -115 116 -54 404 -162
482 -181 9 -3 41 -12 70 -20 66 -19 279 -72 333 -82 22 -4 47 -9 55 -10 8 -2
38 -6 65 -9 28 -3 64 -9 80 -12 40 -7 69 -11 140 -17 33 -3 83 -8 110 -12 109
-12 439 -18 550 -9 22 1 81 6 130 10 103 7 151 12 180 18 46 10 121 20 128 18
10 -2 111 18 227 44 14 3 37 7 52 10 15 2 32 6 38 10 10 6 33 12 83 21 63 12
261 80 265 92 2 7 -5 11 -20 11 -27 -2 -189 10 -233 16 -16 3 -46 7 -65 9 -79
11 -121 18 -240 41 -14 3 -36 7 -50 10 -77 15 -147 32 -225 56 -66 20 -121 35
-155 43 -9 2 -54 19 -100 37 -47 18 -91 34 -99 35 -28 5 -240 101 -412 186
-183 91 -387 204 -574 317 -60 37 -121 74 -135 82 -14 8 -27 17 -30 20 -3 3
-16 12 -30 19 -14 7 -104 65 -200 129 -96 63 -186 121 -200 129 -13 7 -27 17
-30 21 -6 9 -171 121 -205 139 -14 7 -25 17 -25 23 0 5 -5 9 -10 9 -12 0 -73
41 -78 53 -2 4 -9 7 -16 7 -7 0 -21 8 -32 18 -11 9 -29 22 -40 29 -176 107
-318 179 -411 209 -58 18 -249 28 -281 14z"/>
</g>
</svg>
